<?xml version="1.0" encoding="UTF-8"?>
<svg width="512px" height="512px" viewBox="0 0 512 512" version="1.1" xmlns="http://www.w3.org/2000/svg" xmlns:xlink="http://www.w3.org/1999/xlink">
    <title>Group</title>
    <g id="Page-1" stroke="none" stroke-width="1" fill="none" fill-rule="evenodd">
        <g id="Group">
            <rect id="Rectangle" fill="#F1F5F9" x="0" y="0" width="512" height="512"></rect>
            <g id="logo" transform="translate(32.000000, 32.000000)" fill-rule="nonzero">
                <path d="M73.993615,86.8 C76.4344633,86.8013025 78.8557159,87.2296703 81.1447887,88.0651852 C83.3924739,61.4453128 90.1315067,35.3823089 101.083944,10.9511111 C102.00747,8.03040709 100.640823,4.88100322 97.8606619,3.52313683 C95.0805008,2.16527045 91.7118104,3.00187486 89.915493,5.4962963 C89.0952113,7.11407407 72.6685446,40.3614815 68.6512676,87.5051852 C70.3924386,87.0374479 72.188993,86.8003043 73.993615,86.8 Z" id="Path" fill="#172D72"></path>
                <path d="M94.6478873,107.146667 C94.6426301,110.854739 93.6098757,114.490895 91.6612207,117.662222 C100.579155,119.217778 110.064977,120.711111 120.07662,122.017778 L120.917934,122.017778 C123.970328,121.694649 126.343926,119.252062 126.541241,116.231027 C126.738557,113.209992 124.702322,110.487327 121.717183,109.780741 C112.168263,108.515556 103.145164,107.105185 94.5637559,105.632593 C94.6478873,106.151111 94.6478873,106.648889 94.6478873,107.146667 Z" id="Path" fill="#172D72"></path>
                <path d="M6.12056338,96.0296296 C21.6550067,101.496271 37.489877,106.094196 53.5496714,109.801481 C53.4328225,108.921069 53.3696105,108.03454 53.3603756,107.146667 C53.3525978,103.827063 54.1762263,100.556933 55.7581221,97.6266667 C40.4500778,94.068863 25.3476114,89.7000578 10.5164319,84.5392593 C8.35063284,83.3076943 5.65171118,83.4532425 3.63502132,84.9103618 C1.61833146,86.367481 0.664259937,88.8613307 1.20243575,91.2689025 C1.74061157,93.6764743 3.66952439,95.5436539 6.12056338,96.0296296 Z" id="Path" fill="#172D72"></path>
                <path d="M444.824038,209.792593 C443.680714,206.609146 440.170942,204.906248 436.915681,205.955556 C423.854272,210.311111 394.492394,218.213333 355.812958,224.891852 C345.10723,196.82963 335.158685,166.05037 333.286761,119.425185 C398.656901,110.091852 440.449202,96.2577778 440.932958,96.0918519 C443.388462,95.6732585 445.364143,93.868795 445.975268,91.4865218 C446.586392,89.1042486 445.718478,86.5904395 443.760187,85.0708086 C441.801896,83.5511777 439.120077,83.3103991 436.915681,84.4562963 C436.452958,84.6222222 396.238122,97.8962963 333.013333,107.042963 C333.253142,73.9468916 340.345974,41.2479127 353.856901,10.9511111 C355.300281,8.94679056 355.411664,6.29235735 354.14114,4.17729892 C352.870616,2.06224049 350.45639,0.883101341 347.980309,1.16826967 C345.504228,1.45343799 343.430523,3.14944864 342.688451,5.4962963 C327.947525,37.968439 320.397138,73.1667337 320.540845,108.743704 C313.319562,109.683951 305.852895,110.548148 298.140845,111.336296 C267.781091,114.405969 237.270396,115.790869 206.753052,115.484444 C206.753052,114.634074 206.753052,113.825185 206.753052,112.954074 C206.134958,77.8639721 213.231476,43.0581658 227.554554,10.9303704 C228.997933,8.92604982 229.109317,6.27161661 227.838793,4.15655818 C226.568268,2.04149975 224.154042,0.8623606 221.677961,1.14752893 C219.20188,1.43269725 217.128176,3.1287079 216.386103,5.47555556 C201.019643,39.3709713 193.476637,76.2079792 194.301596,113.327407 L194.301596,115.401481 C182.291831,115.09037 170.345164,114.53037 158.545728,113.659259 C155.264601,113.431111 151.962441,113.161481 148.702347,112.871111 C146.292935,112.294163 143.764187,113.162173 142.238858,115.08975 C140.713529,117.017326 140.474368,119.647154 141.627563,121.8116 C142.780757,123.976046 145.112538,125.273888 147.587606,125.128889 C150.910798,125.419259 154.297089,125.688889 157.641315,125.937778 C169.966573,126.808889 182.375962,127.396543 194.869484,127.700741 C196.333111,155.006716 201.475209,181.999195 210.160376,207.967407 C209.171831,208.485926 208.204319,209.025185 207.278873,209.626667 C197.707318,215.740909 191.181792,225.540011 189.295775,236.631111 C178.947606,236.299259 168.662535,235.801481 158.440563,235.054815 C139.048263,233.665185 120.938967,231.425185 104.5123,228.832593 C93.7855399,201.081481 83.4794366,171.256296 80.8292958,126.352593 C76.8185607,127.780727 72.4520263,127.91869 68.3568075,126.746667 C70.8386854,169.94963 80.1352113,199.546667 90.2730516,226.405926 C41.7502347,217.54963 10.9791549,206.183704 10.5164319,206.017778 C7.47501447,205.381478 4.41684786,207.02472 3.31023629,209.889877 C2.20362473,212.755033 3.37841999,215.988077 6.07849765,217.508148 C7.9714554,218.213333 41.9395305,230.802963 95.4471362,239.845926 L95.8467606,240.903704 C105.584977,265.792593 114.776338,289.395556 118.604319,321.792593 C119.783361,331.981292 120.275209,342.235936 120.07662,352.488889 C54.685446,343.84 11.0632864,327.703704 10.5164319,327.517037 C8.35516285,326.3003 5.67052382,326.449941 3.66206566,327.899096 C1.6536075,329.348252 0.696551616,331.82619 1.21852986,334.225718 C1.74050809,336.625246 3.64400416,338.498083 6.07849765,339.007407 C8.18178404,339.816296 52.3507981,356.139259 119.655962,364.954074 C118.075278,389.930314 113.123968,414.587148 104.932958,438.272593 C104.302657,441.26014 105.962415,444.257557 108.85186,445.34988 C111.741306,446.442203 115.007654,445.307047 116.564131,442.66963 C125.297343,418.097381 130.555921,392.455819 132.191549,366.468148 C140.394366,367.380741 148.898654,368.161975 157.704413,368.811852 C176.591925,370.194568 195.675743,370.885926 214.955869,370.885926 C225.17784,370.885926 235.441878,370.637037 245.726948,370.242963 C243.81146,393.435537 238.971642,416.302205 231.319437,438.314074 C230.130124,441.485808 231.727364,445.013567 234.916056,446.257778 C235.62903,446.520669 236.384358,446.651882 237.14554,446.651882 C239.713495,446.625582 242.009114,445.067213 242.95061,442.711111 C251.311842,419.161963 256.488455,394.628642 258.346667,369.745185 C272.046072,369.026173 285.780532,367.975309 299.550047,366.592593 C302.567337,365.819113 304.559524,362.988599 304.238907,359.930623 C303.91829,356.872647 301.380985,354.503932 298.267042,354.355556 C285.170579,355.738272 272.088138,356.747654 259.019718,357.383704 C259.444308,345.072393 258.95222,332.746954 257.547418,320.506667 C255.839621,306.345807 252.955437,292.347159 248.923944,278.651852 C249.954554,278.091852 251.02723,277.594074 252.015775,276.951111 C261.104633,271.132677 267.45227,261.96755 269.641315,251.502222 C269.914742,250.174815 270.12507,248.826667 270.2723,247.478519 C280.031549,246.835556 289.790798,246.088889 299.550047,245.093333 C316.628732,243.351111 332.866103,241.152593 347.925634,238.746667 C348.220094,239.472593 348.514554,240.198519 348.787981,240.945185 C358.526197,265.834074 367.717559,289.437037 371.54554,321.834074 C372.407887,329.072593 372.849577,336.228148 372.996808,343.197037 C359.094085,345.934815 343.256338,348.631111 325.799061,350.995556 C322.813197,351.705583 320.77955,354.432595 320.982136,357.454793 C321.184723,360.476991 323.564683,362.916308 326.619343,363.232593 C326.906414,363.253153 327.194619,363.253153 327.48169,363.232593 C344.307981,360.971852 359.472676,358.420741 372.933709,355.828148 C371.999219,383.911148 366.81706,411.699089 357.558685,438.272593 C356.367029,441.438583 357.953857,444.963959 361.134272,446.216296 C361.847246,446.479187 362.602574,446.612696 363.363756,446.61037 C365.939406,446.592518 368.245494,445.032694 369.189859,442.66963 C379.354814,413.920864 384.814541,383.759837 385.364131,353.318519 C404.123784,349.554597 422.666136,344.805113 440.911925,339.09037 C443.695736,337.681579 445.012089,334.473795 444.005235,331.552368 C442.998382,328.630941 439.972484,326.878408 436.894648,327.434074 C419.9244,332.732712 402.689898,337.170138 385.258967,340.728889 C385.048638,334.112593 384.585915,327.351111 383.786667,320.465185 C379.76939,286.491852 369.883944,261.105185 360.313991,236.58963 C398.656901,229.828148 427.808451,222.071111 440.911925,217.591111 C444.148587,216.472114 445.886082,213.008543 444.824038,209.792593 L444.824038,209.792593 Z M246.357934,357.943704 C217.062771,359.093895 187.725329,358.629963 158.482629,356.554074 C149.564695,355.911111 140.941221,355.081481 132.591174,354.127407 C132.851755,342.884792 132.331729,331.63777 131.034742,320.465185 C127.311925,289.022222 118.562254,264.942222 109.707418,242.085926 C124.430423,244.16 140.499531,246.088889 157.578216,247.312593 C168.094648,248.08 178.61108,248.598519 189.127512,248.93037 C191.488523,265.702507 204.301063,279.192692 221.118498,282.613333 C223.885191,283.187279 226.704397,283.479185 229.531643,283.484444 C232.018438,283.458063 234.497206,283.20113 236.935211,282.717037 C240.685933,295.538192 243.359137,308.642265 244.9277,321.896296 C246.342908,333.858018 246.821069,345.909512 246.357934,357.943704 Z M257.421221,248.245926 C257.421221,248.494815 257.421221,248.722963 257.421221,248.951111 C255.889781,256.213833 251.483843,262.574181 245.180094,266.622222 L245.180094,266.622222 L245.180094,266.622222 L245.180094,266.622222 C241.657377,268.895398 237.660112,270.355829 233.485822,270.894815 L233.485822,270.894815 C233.065164,270.894815 232.623474,270.894815 232.202817,271.019259 L231.866291,271.019259 C221.559418,271.886449 211.600934,267.107776 205.93277,258.574815 C204.886249,256.997162 204.01202,255.314702 203.324695,253.555556 C203.01752,252.795458 202.750742,252.020085 202.525446,251.232593 C202.525446,250.962963 202.357183,250.672593 202.294085,250.402963 C202.230986,250.133333 202.083756,249.718519 202.020657,249.365926 L202.020657,249.365926 C201.095211,245.309959 201.095211,241.101893 202.020657,237.045926 L202.020657,237.045926 C202.020657,236.61037 202.273052,236.174815 202.378216,235.739259 C202.48338,235.303704 202.546479,235.137778 202.651643,234.847407 C202.844602,234.228198 203.069241,233.619022 203.324695,233.022222 L203.556056,232.4 C203.892582,231.632593 204.250141,230.865185 204.649765,230.139259 C206.878449,226.04492 210.110467,222.565459 214.051455,220.017778 L214.240751,220.017778 L214.240751,220.017778 C217.780362,217.784965 221.784585,216.367152 225.956056,215.869528 L225.956056,215.869528 L226.818404,215.869528 L227.870047,215.869528 C228.416901,215.869528 228.963756,215.869528 229.51061,215.869528 C231.482763,215.86434 233.449889,216.065969 235.378779,216.471111 C242.750336,217.96609 249.205693,222.314491 253.298779,228.542222 C253.551174,228.894815 253.719437,229.30963 253.950798,229.682963 C254.18216,230.056296 254.686948,230.968889 255.023474,231.632593 L255.717559,233.125926 C256.138216,234.142222 256.516808,235.2 256.8323,236.216296 C256.8323,236.340741 256.8323,236.444444 256.937465,236.548148 L256.937465,236.548148 C258.053874,240.605888 258.226431,244.859885 257.442254,248.992593 L257.421221,248.245926 Z M298.140845,232.814815 C288.612958,233.78963 279.064038,234.536296 269.557183,235.179259 C268.520685,230.190797 266.536774,225.440653 263.710047,221.179259 C254.63406,207.520127 238.099289,200.608263 221.833615,203.674074 C213.679771,179.111888 208.801267,153.607957 207.320939,127.804444 L214.829671,127.804444 C243.084072,127.79701 271.319401,126.357084 299.42385,123.49037 C306.799374,122.743704 313.950548,121.920988 320.877371,121.022222 C322.875493,167.647407 332.634742,198.737778 343.298404,226.903704 C329.185352,229.185185 314.04169,231.217778 298.140845,232.814815 L298.140845,232.814815 Z" id="Shape" fill="#172D72"></path>
                <ellipse id="Oval" fill="#F25C7C" cx="326.30385" cy="114.696296" rx="20.6332394" ry="20.3466667"></ellipse>
                <ellipse id="Oval" fill="#F25C7C" cx="326.30385" cy="114.696296" rx="6.87774648" ry="6.78222222"></ellipse>
                <ellipse id="Oval" fill="#10A6FA" cx="99.9271362" cy="233.25037" rx="20.6332394" ry="20.3466667"></ellipse>
                <ellipse id="Oval" fill="#10A6FA" cx="99.9271362" cy="233.25037" rx="6.87774648" ry="6.78222222"></ellipse>
                <ellipse id="Oval" fill="#10A6FA" cx="200.148732" cy="121.727407" rx="20.6332394" ry="20.3466667"></ellipse>
                <path d="M351.732582,210.85036 C343.374887,210.841982 335.835808,215.801264 332.633525,223.413923 C329.431243,231.026581 331.196998,239.791993 337.106784,245.619699 C343.01657,251.447405 351.905439,253.188635 359.625318,250.030829 C367.345197,246.873023 372.374328,239.438653 372.365832,231.197037 C372.354228,219.964622 363.1232,210.861803 351.732582,210.85036 Z" id="Path" fill="#10A6FA"></path>
                <ellipse id="Oval" fill="#F25C7C" cx="73.7622535" cy="107.146667" rx="20.6332394" ry="20.3466667"></ellipse>
                <ellipse id="Oval" fill="#F25C7C" cx="73.7622535" cy="107.146667" rx="6.87774648" ry="6.78222222"></ellipse>
                <ellipse id="Oval" fill="#F25C7C" cx="125.208638" cy="359.022222" rx="20.6332394" ry="20.3466667"></ellipse>
                <ellipse id="Oval" fill="#F25C7C" cx="125.208638" cy="359.022222" rx="6.87774648" ry="6.78222222"></ellipse>
                <ellipse id="Oval" fill="#F25C7C" cx="378.675681" cy="347.842963" rx="20.6332394" ry="20.3466667"></ellipse>
                <ellipse id="Oval" fill="#10A6FA" cx="251.700282" cy="364.705185" rx="20.6332394" ry="20.3466667"></ellipse>
                <ellipse id="Oval" fill="#10A6FA" cx="251.700282" cy="364.705185" rx="6.87774648" ry="6.78222222"></ellipse>
                <path d="M100.179531,263.220748 C87.8745856,263.229129 76.776929,255.925106 72.0641,244.716315 C67.351271,233.507524 69.9519858,220.602785 78.6528979,212.022719 C87.35381,203.442653 100.440306,200.878059 111.806967,205.525432 C123.173629,210.172805 130.580525,221.116327 130.572026,233.25037 C130.548848,249.793075 116.955231,263.197892 100.179531,263.220748 L100.179531,263.220748 Z M100.179531,215.517037 C90.2709717,215.517037 82.2384977,223.437949 82.2384977,233.208889 C82.2384977,242.979829 90.2709717,250.900741 100.179531,250.900741 C110.088089,250.900741 118.120563,242.979829 118.120563,233.208889 C118.09737,223.454152 110.071685,215.558492 100.179531,215.558519 L100.179531,215.517037 Z" id="Shape" fill="#172D72"></path>
                <path d="M73.993615,137.137778 C57.1966911,137.137778 43.5800939,123.7103 43.5800939,107.146667 C43.5800939,90.5830334 57.1966911,77.1555556 73.993615,77.1555556 C90.7905389,77.1555556 104.407136,90.5830334 104.407136,107.146667 C104.395535,123.705559 90.7857314,137.126338 73.993615,137.137778 Z M73.993615,89.4340741 C64.0850562,89.4340741 56.0525822,97.354986 56.0525822,107.125926 C56.0525822,116.896866 64.0850562,124.817778 73.993615,124.817778 C83.9021739,124.817778 91.9346479,116.896866 91.9346479,107.125926 C91.91148,97.3678247 83.8891746,89.4662145 73.993615,89.4548148 L73.993615,89.4340741 Z" id="Shape" fill="#172D72"></path>
                <path d="M200.380094,151.697778 C188.077059,151.697778 176.985858,144.388429 172.279658,133.178972 C167.573457,121.969516 170.179367,109.068178 178.881934,100.492414 C187.584502,91.9166504 200.669348,89.3558603 212.033426,94.0044502 C223.397504,98.6530401 230.802123,109.595251 230.793622,121.727407 C230.782005,138.28294 217.168807,151.697778 200.380094,151.697778 L200.380094,151.697778 Z M200.380094,103.994074 C190.471535,103.994074 182.439061,111.914986 182.439061,121.685926 C182.439061,131.456866 190.471535,139.377778 200.380094,139.377778 C210.288653,139.377778 218.321127,131.456866 218.321127,121.685926 C218.2864,111.935927 210.267471,104.046912 200.380094,104.035556 L200.380094,103.994074 Z" id="Shape" fill="#172D72"></path>
                <path d="M326.535211,144.666674 C314.230266,144.675055 303.13261,137.371032 298.419781,126.162241 C293.706952,114.95345 296.307667,102.048711 305.008579,93.4686447 C313.709491,84.8885786 326.795987,82.3239848 338.162648,86.9713579 C349.529309,91.6187309 356.936206,102.562253 356.927707,114.696296 C356.904529,131.239001 343.310912,144.643818 326.535211,144.666674 Z M326.535211,96.962963 C316.626652,96.962963 308.594178,104.883875 308.594178,114.654815 C308.594178,124.425755 316.626652,132.346667 326.535211,132.346667 C336.44377,132.346667 344.476244,124.425755 344.476244,114.654815 C344.441518,104.904816 336.422588,97.0158012 326.535211,97.0044444 L326.535211,96.962963 Z" id="Shape" fill="#172D72"></path>
                <path d="M351.963944,261.188148 C335.16702,261.188148 321.550423,247.76067 321.550423,231.197037 C321.550423,214.633404 335.16702,201.205926 351.963944,201.205926 C368.760868,201.205926 382.377465,214.633404 382.377465,231.197037 C382.365864,247.75593 368.75606,261.176708 351.963944,261.188148 L351.963944,261.188148 Z M351.963944,213.484444 C342.055385,213.484444 334.022911,221.405356 334.022911,231.176296 C334.022911,240.947236 342.055385,248.868148 351.963944,248.868148 C361.872503,248.868148 369.904977,240.947236 369.904977,231.176296 C369.881809,221.418195 361.859503,213.516585 351.963944,213.505185 L351.963944,213.484444 Z" id="Shape" fill="#172D72"></path>
                <path d="M378.907042,377.834074 C362.110118,377.834074 348.493521,364.406596 348.493521,347.842963 C348.493521,331.27933 362.110118,317.851852 378.907042,317.851852 C395.703966,317.851852 409.320563,331.27933 409.320563,347.842963 C409.308963,364.401855 395.699159,377.822634 378.907042,377.834074 Z M378.907042,330.13037 C371.648659,330.13037 365.105381,334.443104 362.329686,341.056643 C359.553992,347.670181 361.09281,355.281387 366.228271,360.339586 C371.363733,365.397784 379.083938,366.9063 385.787365,364.161402 C392.490791,361.416503 396.856584,354.959049 396.848088,347.801481 C396.801809,338.059588 388.786248,330.183153 378.907042,330.171852 L378.907042,330.13037 Z" id="Shape" fill="#172D72"></path>
                <path d="M251.952676,394.696304 C239.649645,394.704686 228.553318,387.402909 223.839255,376.196665 C219.125192,364.990422 221.722049,352.08731 230.418599,343.505611 C239.115148,334.923912 252.198194,332.354196 263.565531,336.995033 C274.932867,341.635869 282.345164,352.573026 282.345164,364.705185 C282.333581,381.255989 268.736578,394.673424 251.952676,394.696304 Z M251.952676,346.99258 C244.694298,346.984202 238.145894,351.289359 235.362334,357.899682 C232.578775,364.510005 234.108538,372.122986 239.237979,377.187121 C244.36742,382.251257 252.085825,383.768702 258.792512,381.031559 C265.499199,378.294416 269.872676,371.842017 269.872676,364.684444 C269.849548,354.934422 261.840023,347.03614 251.952676,347.013333 L251.952676,346.99258 Z" id="Shape" fill="#172D72"></path>
                <path d="M125.461033,389.013341 C113.158001,389.021723 102.061674,381.719946 97.3476115,370.513702 C92.6335485,359.307459 95.2304061,346.404347 103.926955,337.822648 C112.623505,329.240949 125.706551,326.671233 137.073887,331.31207 C148.441224,335.952906 155.853521,346.890063 155.853521,359.022222 C155.830382,375.568301 142.240135,388.979068 125.461033,389.013341 L125.461033,389.013341 Z M125.461033,341.30963 C115.552474,341.30963 107.52,349.230542 107.52,359.001481 C107.52,368.772421 115.552474,376.693333 125.461033,376.693333 C135.369592,376.693333 143.402066,368.772421 143.402066,359.001481 C143.378898,349.24338 135.356592,341.34177 125.461033,341.33037 L125.461033,341.30963 Z" id="Shape" fill="#172D72"></path>
            </g>
        </g>
    </g>
</svg>